<svg width="150" height="153" viewBox="0 0 150 153" fill="none" xmlns="http://www.w3.org/2000/svg">
    <path d="M75 150c41.421 0 75-33.579 75-75S116.421 0 75 0 0 33.579 0 75s33.579 75 75 75z" fill="url(#6u3dxhnhja)"/>
    <g filter="url(#4dt0ojumlb)">
        <mask id="4usfb4rfad" style="mask-type:alpha" maskUnits="userSpaceOnUse" x="0" y="0" width="150" height="150">
            <path d="M75 150c41.421 0 75-33.579 75-75S116.421 0 75 0 0 33.579 0 75s33.579 75 75 75z" fill="url(#6qujdmib3c)"/>
        </mask>
        <g mask="url(#4usfb4rfad)">
            <path d="M118 43H32a5 5 0 0 0-5 5v105a5 5 0 0 0 5 5h86a5 5 0 0 0 5-5V48a5 5 0 0 0-5-5z" fill="#fff"/>
        </g>
        <path d="M105.83 72.995c-1.32-.9-2.95-.48-3.83.55-.88-1.03-2.51-1.455-3.83-.55-.7.48-1.14 1.29-1.17 2.145-.07 1.94 1.65 3.495 4.275 5.88l.05.045a.998.998 0 0 0 1.345-.005l.055-.05c2.625-2.38 4.34-3.935 4.275-5.875-.03-.85-.47-1.66-1.17-2.14zm-3.78 7.28-.05.05-.05-.05C99.57 78.12 98 76.695 98 75.25c0-1 .75-1.75 1.75-1.75.77 0 1.52.495 1.785 1.18h.935c.26-.685 1.01-1.18 1.78-1.18 1 0 1.75.75 1.75 1.75 0 1.445-1.57 2.87-3.95 5.025z" fill="#000"/>
    </g>
    <path d="M66 53H40a3 3 0 1 0 0 6h26a3 3 0 1 0 0-6zM66 95H40a3 3 0 1 0 0 6h26a3 3 0 1 0 0-6z" fill="#E0E9FF"/>
    <path d="M108 68H42a4 4 0 0 0-4 4v10a4 4 0 0 0 4 4h66a4 4 0 0 0 4-4V72a4 4 0 0 0-4-4z" stroke="#3369FA" stroke-width="2"/>
    <path d="M108 109H42a5 5 0 0 0-5 5v8a5 5 0 0 0 5 5h66a5 5 0 0 0 5-5v-8a5 5 0 0 0-5-5z" fill="#C9D8FF"/>
    <path d="M53 32a4 4 0 1 0 0-8 4 4 0 0 0 0 8z" fill="#fff"/>
    <path d="M75 32a4 4 0 1 0 0-8 4 4 0 0 0 0 8z" fill="#3369FA"/>
    <path d="M97 32a4 4 0 1 0 0-8 4 4 0 0 0 0 8z" fill="#fff"/>
    <path d="M86 88a5 5 0 1 0 0-10 5 5 0 0 0 0 10z" fill="#C9D8FF"/>
    <path d="M89.907 104.37c-.8 0-1.547 0-2.227-.043a4.557 4.557 0 0 1-3.884-2.749l-4.219-8.338a1.8 1.8 0 0 1 .182-2.529 1.627 1.627 0 0 1 1.035-.359 1.914 1.914 0 0 1 1.437.714l1.916 2.615.03.034V83.78a1.859 1.859 0 0 1 3.716 0v6.5a1.729 1.729 0 1 1 3.444 0v1.355a1.729 1.729 0 1 1 3.444 0v1.044a1.729 1.729 0 1 1 3.444 0v6.337c-.034 1.949-.915 5.235-4.014 5.235-.225.01-2.13.12-4.3.12l-.004-.001z" fill="#3369FA" stroke="#fff"/>
    <defs>
        <linearGradient id="6u3dxhnhja" x1="75" y1="0" x2="75" y2="150" gradientUnits="userSpaceOnUse">
            <stop stop-color="#E3ECFA"/>
            <stop offset="1" stop-color="#DAE7FF"/>
        </linearGradient>
        <linearGradient id="6qujdmib3c" x1="75" y1="0" x2="75" y2="150" gradientUnits="userSpaceOnUse">
            <stop stop-color="#E3ECFA"/>
            <stop offset="1" stop-color="#DAE7FF"/>
        </linearGradient>
        <filter id="4dt0ojumlb" x="21" y="34" width="108" height="119" filterUnits="userSpaceOnUse" color-interpolation-filters="sRGB">
            <feFlood flood-opacity="0" result="BackgroundImageFix"/>
            <feColorMatrix in="SourceAlpha" values="0 0 0 0 0 0 0 0 0 0 0 0 0 0 0 0 0 0 127 0" result="hardAlpha"/>
            <feOffset dy="-3"/>
            <feGaussianBlur stdDeviation="3"/>
            <feColorMatrix values="0 0 0 0 0.788235 0 0 0 0 0.803922 0 0 0 0 0.85098 0 0 0 0.349 0"/>
            <feBlend in2="BackgroundImageFix" result="effect1_dropShadow_5678_218756"/>
            <feBlend in="SourceGraphic" in2="effect1_dropShadow_5678_218756" result="shape"/>
        </filter>
    </defs>
</svg>
