<svg width="18" height="18" viewBox="0 0 18 18" xmlns="http://www.w3.org/2000/svg">
    <g fill-rule="nonzero" fill="none">
        <path d="m3.903 10.683-.601 2.245-2.199.046A8.601 8.601 0 0 1 .073 8.88c0-1.433.349-2.784.967-3.973l1.957.358.858 1.946a5.136 5.136 0 0 0-.278 1.669c0 .634.115 1.242.326 1.803z" fill="#FBBB00"/>
        <path d="M17.203 7.266a8.65 8.65 0 0 1-.038 3.418 8.638 8.638 0 0 1-3.042 4.934l-2.466-.126-.349-2.179a5.15 5.15 0 0 0 2.216-2.629h-4.62V7.266h8.299z" fill="#518EF8"/>
        <path d="M14.122 15.617a8.604 8.604 0 0 1-5.408 1.903 8.639 8.639 0 0 1-7.61-4.545l2.8-2.292a5.137 5.137 0 0 0 7.404 2.63l2.814 2.304z" fill="#28B446"/>
        <path d="M14.228 2.23 11.43 4.52a5.139 5.139 0 0 0-7.575 2.69L1.04 4.908A8.638 8.638 0 0 1 8.714.24c2.096 0 4.018.747 5.514 1.99z" fill="#F14336"/>
    </g>
</svg>
